# AST/ASF file generated using VICON BodyLanguage
# -----------------------------------------------
:version 1.10
:name VICON
:units
  mass 1.0
  length 0.45
  angle deg
:documentation
   .ast/.asf automatically generated from VICON data using
   VICON BodyBuilder and BodyLanguage model FoxedUp or BRILLIANT.MOD
:root
   order TX TY TZ RX RY RZ
   axis XYZ
   position 0 0 0  
   orientation 0 0 0 
:bonedata
  begin
     id 1 
     name lhipjoint
     direction 0.643824 -0.71708 0.266994 
     length 2.52133 
     axis 0 0 0  XYZ
  end
  begin
     id 2 
     name lfemur
     direction 0.34202 -0.939693 0  
     length 7.51824  
     axis 0 0 20  XYZ
    dof rx ry rz
    limits (-160.0 20.0)
           (-70.0 70.0)
           (-60.0 70.0)
  end
  begin
     id 3 
     name ltibia
     direction 0.34202 -0.939693 0   
     length 7.3685   
     axis 0 0 20   XYZ
    dof rx
    limits (-10.0 170.0)
  end
  begin
     id 4 
     name lfoot
     direction 0.105419 -0.289636 0.951314   
     length 2.20972   
     axis -90 7.62852e-016 20   XYZ
    dof rx rz
    limits (-45.0 90.0)
           (-70.0 20.0)
  end
  begin
     id 5 
     name ltoes
     direction 1.53549e-011 -4.21833e-011 1   
     length 1.10139   
     axis -90 7.62852e-016 20   XYZ
    dof rx
    limits (-90.0 20.0)
  end
  begin
     id 6 
     name rhipjoint
     direction -0.608823 -0.743445 0.276811   
     length 2.43192  
     axis 0 0 0  XYZ 
  end
  begin
     id 7 
     name rfemur
     direction -0.34202 -0.939693 0   
     length 7.69715   
     axis 0 0 -20   XYZ
    dof rx ry rz
    limits (-160.0 20.0)
           (-70.0 70.0)
           (-70.0 60.0)
  end
  begin
     id 8 
     name rtibia
     direction -0.34202 -0.939693 0   
     length 7.44924   
     axis 0 0 -20   XYZ
    dof rx
    limits (-10.0 170.0)
 end
 begin
     id 9 
     name rfoot
     direction -0.103614 -0.284677 0.953007   
     length 2.22623  
     axis -90 -7.62852e-016 -20   XYZ
    dof rx rz
    limits (-45.0 90.0)
           (-20.0 70.0)
  end
  begin
     id 10 
     name rtoes
     direction -1.53537e-011 -4.22026e-011 1   
     length 1.11   
     axis -90 -7.62852e-016 -20   XYZ
    dof rx
    limits (-90.0 20.0)
  end
  begin
     id 11 
     name lowerback
     direction -0.0101212 0.99662 -0.0815298   
     length 2.08277   
     axis 0 0 0   XYZ
    dof rx ry rz
    limits (-20.0 45.0)
           (-30.0 30.0)
           (-30.0 30.0)
  end
  begin
     id 12 
     name upperback
     direction 0.024314 0.999591 -0.0150645   
     length 2.08524   
     axis 0 0 0   XYZ
    dof rx ry rz
    limits (-20.0 45.0)
           (-30.0 30.0)
           (-30.0 30.0)
  end
  begin
     id 13 
     name thorax
     direction 0.0285959 0.999323 0.0231357   
     length 2.09645   
     axis 0 0 0   XYZ
    dof rx ry rz
    limits (-20.0 45.0)
           (-30.0 30.0)
           (-30.0 30.0)
  end
  begin
     id 14 
     name lowerneck
     direction -0.065512 0.979301 0.191515   
     length 1.63798   
     axis 0 0 0   XYZ
    dof rx ry rz
    limits (-20.0 45.0)
           (-30.0 30.0)
           (-30.0 30.0)
  end
  begin
     id 15 
     name upperneck
     direction 0.0498479 0.98191 -0.182667   
     length 1.68731   
     axis 0 0 0   XYZ
    dof rx ry rz
    limits (-20.0 45.0)
           (-30.0 30.0)
           (-30.0 30.0)
  end
  begin
     id 16
     name head
     direction 0.0230358 0.996257 -0.0833175  
     length 1.69785  
     axis 0 0 0   XYZ
    dof rx ry rz
    limits (-20.0 45.0)
           (-30.0 30.0)
           (-30.0 30.0)
  end
  begin
     id 17 
     name lclavicle
     direction 0.967963 0.201165 -0.150269  
     length 3.63976  
     axis 0 0 0   XYZ
    dof ry rz
    limits (-20.0 10.0)
           (0.0 20.0)
  end
  begin
     id 18 
     name lhumerus
     direction 1 -4.48954e-011 -2.92837e-028   
     length 5.32462   
     axis 180 -30 -90   XYZ
    dof rx ry rz
    limits (-60.0 90.0)
           (-90.0 90.0)
           (-90.0 90.0)
  end
  begin
     id 19
     name lradius
     direction 1 -4.48958e-011 -6.39511e-027   
     length 3.48402   
     axis 180 -30 -90   XYZ
    dof rx
    limits (-10.0 170.0)
  end
  begin
     id 20
     name lwrist
     direction 1 -4.48975e-011 -1.1413e-026   
     length 1.74201   
     axis 6.88575e-015 90 90   XYZ
    dof ry
    limits (-180.0 0.0)
 end
  begin
     id 21 
     name lhand
     direction 1 -4.48899e-011 -2.28192e-026   
     length 0.572476   
     axis 1.45643e-014 90 90   XYZ
    dof rx rz
    limits (-90.0 90.0)
           (-45.0 45.0)
  end
  begin
     id 22 
     name lfingers
     direction 1 -4.49155e-011 -4.5684e-026   
     length 0.461545   
     axis 2.91283e-014 90 90   XYZ
    dof rx
    limits (0.0 90.0)
  end
  begin
     id 23
     name lthumb
     direction 0.707107 -6.34943e-011 0.707107   
     length 0.662688   
     axis -90 45 -2.25915e-014   XYZ
    dof rx rz
    limits (-45.0 45.0)
           (-45.0 45.0)
  end
  begin
     id 24 
     name rclavicle
     direction -0.964103 0.264019 -0.0282629   
     length 3.54491  
     axis 0 0 0   XYZ 
    dof ry rz
    limits (-10.0 20.0)
           (-20.0 0.0)
  end
  begin
     id 25 
     name rhumerus
     direction -1 -4.48964e-011 -2.45032e-027  
     length 5.33589   
     axis 180 30 90   XYZ
    dof rx ry rz
    limits (-90.0 60.0)
           (-90.0 90.0)
           (-90.0 90.0)
  end
  begin
     id 26 
     name rradius
     direction -1 -4.48987e-011 -1.55093e-027   
     length 3.64134   
     axis 180 30 90   XYZ
    dof rx
    limits (-10.0 170.0)
  end
  begin
     id 27 
     name rwrist
     direction -1 -4.4897e-011 -1.14128e-026   
     length 1.82067   
     axis 6.88575e-015 -90 -90   XYZ
    dof ry
    limits (-180.0 0.0)
  end
  begin
     id 28
     name rhand
     direction -1 -4.49021e-011 -2.28301e-026   
     length 0.734811   
     axis 1.45643e-014 -90 -90   XYZ
    dof rx rz
    limits (-90.0 90.0)
           (-45.0 45.0)
  end
  begin
     id 29
     name rfingers
     direction -1 -4.48862e-011 -4.56319e-026   
     length 0.592424   
     axis 2.91283e-014 -90 -90   XYZ
    dof rx
    limits (0.0 90.0)
  end
  begin
     id 30
     name rthumb
     direction -0.707107 -6.34978e-011 0.707107   
     length 0.850605   
     axis -90 -45 2.25915e-014   XYZ
    dof rx rz
    limits (-45.0 45.0)
           (-45.0 45.0)
  end
:hierarchy
  begin
    root lhipjoint rhipjoint lowerback
    lhipjoint lfemur
    lfemur ltibia
    ltibia lfoot
    lfoot ltoes
    rhipjoint rfemur
    rfemur rtibia
    rtibia rfoot
    rfoot rtoes
    lowerback upperback
    upperback thorax
    thorax lowerneck lclavicle rclavicle
    lowerneck upperneck
    upperneck head
    lclavicle lhumerus
    lhumerus lradius
    lradius lwrist
    lwrist lhand lthumb
    lhand lfingers
    rclavicle rhumerus
    rhumerus rradius
    rradius rwrist
    rwrist rhand rthumb
    rhand rfingers
  end

#!OML:ASF F:\VICON\USERDATA\INSTALL\rory3\rory3.ASF
:FULLY-SPECIFIED
:DEGREES
53
root -0.0156855 18.0082 -0.862757 3.69855 -13.0509 1.15043
lowerback 0.127096 -0.580508 -3.44776
upperback -0.600211 -0.78116 1.97016
thorax -0.614222 -0.367878 3.96741
lowerneck -19.9714 -2.05549 -9.88128
upperneck 31.1059 -0.804216 3.7768
head 14.0415 -1.03416 3.07581
rclavicle -1.29459e-014 4.77083e-015
rhumerus -37.4024 3.96952 -83.5542
rradius 51.9253
rwrist 21.4994
rhand -23.0573 4.84937
rfingers 7.12502
rthumb 3.38781 -25.1035
lclavicle -1.29459e-014 4.77083e-015
lhumerus -35.9722 11.3921 83.7057
lradius 32.902
lwrist 3.94329
lhand -24.3035 19.5402
lfingers 7.12502
lthumb 2.18421 49.5088
rfemur -10.1404 9.146 14.4304
rtibia 24.5119
rfoot -14.842 -1.29202
rtoes 5.39574
lfemur -0.259623 -1.27743 -21.8894
ltibia 11.1136
lfoot -10.2304 7.77959
ltoes -11.6327
54
root -0.0134768 18.0093 -0.869157 3.66957 -13.0411 1.15939
lowerback 0.160394 -0.538332 -3.38425
upperback -0.655781 -0.725743 1.95051
thorax -0.6962 -0.33779 3.91167
lowerneck -20.1194 -1.75546 -9.68197
upperneck 31.7184 -0.381878 3.67036
head 14.3046 -0.862838 3.09055
rclavicle -4.17448e-015 9.14409e-015
rhumerus -37.1872 4.85689 -84.1979
rradius 52.7866
rwrist 21.7325
rhand -23.2263 5.18725
rfingers 7.12502
rthumb 3.22455 -24.7681
lclavicle -4.17448e-015 9.14409e-015
lhumerus -35.658 10.4184 84.3694
lradius 33.3611
lwrist 4.18534
lhand -24.2572 19.0664
lfingers 7.12502
lthumb 2.22893 49.0345
rfemur -10.1219 9.18697 14.4233
rtibia 24.4927
rfoot -14.8002 -1.32079
rtoes 5.74267
lfemur -0.281266 -1.20926 -21.8902
ltibia 11.1746
lfoot -10.2898 7.67531
ltoes -11.5159
55
root -0.012095 18.0092 -0.873161 3.59194 -13.0903 1.2354
lowerback -0.348884 -0.499959 -3.15971
upperback -0.311575 -0.659437 1.72944
thorax -0.0680448 -0.324174 3.54826
lowerneck -20.309 -1.48655 -9.3449
upperneck 31.9264 -0.0792914 3.6517
head 14.4081 -0.699702 3.08651
rclavicle 2.18415e-014 -2.38542e-015
rhumerus -36.0595 5.60007 -85.0618
rradius 53.3464
rwrist 22.2418
rhand -23.4658 5.49827
rfingers 7.12502
rthumb 2.99327 -24.4605
lclavicle 2.18415e-014 -2.38542e-015
lhumerus -34.6951 9.2357 84.9099
lradius 33.736
lwrist 4.46341
lhand -24.1541 19.1352
lfingers 7.12502
lthumb 2.32858 49.1022
rfemur -10.0895 9.21874 14.3409
rtibia 24.4921
rfoot -14.7254 -1.33197
rtoes 5.68894
lfemur -0.236829 -1.09906 -21.9762
ltibia 11.2118
lfoot -10.3164 7.62323
ltoes -11.6268
56
root -0.0105853 18.0087 -0.87586 3.50004 -13.1104 1.33179
lowerback -0.637027 -0.477545 -3.10285
upperback -0.119331 -0.621048 1.61343
thorax 0.285721 -0.314698 3.39291
lowerneck -20.3637 -1.18687 -8.97525
upperneck 32.1416 0.314893 3.42215
head 14.4823 -0.524484 3.00498
rclavicle 3.97072e-014 -1.63003e-014
rhumerus -35.3591 6.65861 -85.8002
rradius 54.3496
rwrist 22.8335
rhand -23.6027 5.4024
rfingers 7.12502
rthumb 2.86103 -24.5582
lclavicle 3.97072e-014 -1.63003e-014
lhumerus -33.9466 8.1124 85.5437
lradius 34.1024
lwrist 4.83485
lhand -24.2683 19.716
lfingers 7.12502
lthumb 2.21826 49.6842
rfemur -10.0248 9.21539 14.2383
rtibia 24.4957
rfoot -14.7462 -1.31615
rtoes 5.40852
lfemur -0.174255 -1.06032 -22.088
ltibia 11.2365
lfoot -10.2897 7.61817
ltoes -11.7671
57
root -0.00809577 18.0083 -0.880144 3.49044 -13.0698 1.29119
lowerback -0.729177 -0.463242 -2.99753
upperback -0.12542 -0.600359 1.61637
thorax 0.328403 -0.304935 3.33598
lowerneck -20.3832 -0.887026 -8.76926
upperneck 32.5799 0.750125 3.24455
head 14.6504 -0.353219 2.98667
rclavicle -3.50358e-015 -1.94809e-014
rhumerus -35.2224 8.0105 -86.4863
rradius 55.6951
rwrist 23.0375
rhand -24.0629 5.38759
rfingers 7.12502
rthumb 2.41657 -24.5785
lclavicle -3.50358e-015 -1.94809e-014
lhumerus -33.4559 7.11224 86.2056
lradius 34.4356
lwrist 5.06636
lhand -24.5252 20.2245
lfingers 7.12502
lthumb 1.9701 50.1951
rfemur -10.0286 9.18942 14.2799
rtibia 24.5276
rfoot -14.7814 -1.31771
rtoes 5.19629
lfemur -0.155398 -1.08721 -22.044
ltibia 11.1978
lfoot -10.2496 7.58864
ltoes -11.5699
58
root -0.00424509 18.0074 -0.884946 3.47325 -13.032 1.20929
lowerback -0.726923 -0.429956 -2.84246
upperback -0.174386 -0.55744 1.63983
thorax 0.272219 -0.2816 3.27341
lowerneck -20.389 -0.659976 -8.64771
upperneck 33.0399 1.10497 3.08322
head 14.8364 -0.226462 2.97599
rclavicle -5.54112e-015 3.97569e-016
rhumerus -35.1218 9.51735 -87.1783
rradius 57.0158
rwrist 22.9446
rhand -24.6163 5.31289
rfingers 7.12502
rthumb 1.88213 -24.6586
lclavicle -5.54112e-015 3.97569e-016
lhumerus -33.0953 6.11806 86.8776
lradius 34.8321
lwrist 5.054
lhand -24.7361 20.3147
lfingers 7.12502
lthumb 1.76647 50.2872
rfemur -10.0237 9.15737 14.3644
rtibia 24.5605
rfoot -14.7661 -1.31797
rtoes 5.21162
lfemur -0.131167 -1.13559 -21.9663
ltibia 11.1789
lfoot -10.2361 7.60793
ltoes -11.4735
59
root -0.000632317 18.0042 -0.889593 3.36429 -12.9922 1.29449
lowerback -0.689883 -0.39782 -2.82691
upperback -0.200547 -0.515465 1.60247
thorax 0.220862 -0.259264 3.22692
lowerneck -20.2525 -0.478289 -8.65784
upperneck 33.3773 1.37505 3.0655
head 14.94 -0.127849 3.02743
rclavicle 2.00773e-014 -5.96354e-015
rhumerus -34.8873 10.775 -87.8291
rradius 58.3093
rwrist 23.1742
rhand -24.9944 5.11276
rfingers 7.12502
rthumb 1.51699 -24.8616
lclavicle 2.00773e-014 -5.96354e-015
lhumerus -32.7787 5.00544 87.5615
lradius 35.3319
lwrist 5.1323
lhand -25.0442 20.3121
lfingers 7.12502
lthumb 1.46891 50.2868
rfemur -9.94957 9.04711 14.2741
rtibia 24.594
rfoot -14.7484 -1.25292
rtoes 5.12907
lfemur -0.0784847 -1.19231 -22.0742
ltibia 11.2036
lfoot -10.1982 7.64221
ltoes -11.5476
60
root 0.00234504 18.0024 -0.895031 3.29278 -12.9306 1.32846
lowerback -0.656671 -0.377196 -2.76883
upperback -0.239855 -0.489107 1.57052
thorax 0.159136 -0.244416 3.16184
lowerneck -20.0856 -0.266481 -8.57417
upperneck 33.6886 1.68587 2.95607
head 15.0245 -0.0125382 3.03009
rclavicle -1.04859e-014 9.14409e-015
rhumerus -34.6538 11.8498 -88.4753
rradius 59.5924
rwrist 23.5964
rhand -25.4434 4.91543
rfingers 7.12502
rthumb 1.08335 -25.0616
lclavicle -1.04859e-014 9.14409e-015
lhumerus -32.4748 3.92687 88.1884
lradius 35.8591
lwrist 5.39879
lhand -25.277 20.5349
lfingers 7.12502
lthumb 1.24405 50.511
rfemur -9.91131 8.97973 14.2476
rtibia 24.6446
rfoot -14.7704 -1.27321
rtoes 4.93859
lfemur -0.0417763 -1.21078 -22.1108
ltibia 11.1881
lfoot -10.1638 7.5753
ltoes -11.5134
61
root 0.00431972 18.0017 -0.899846 3.2233 -12.8752 1.3236
lowerback -0.639644 -0.346271 -2.7478
upperback -0.239723 -0.448454 1.60201
thorax 0.146748 -0.223869 3.18292
lowerneck -20.1339 -0.0677646 -8.43326
upperneck 34.1134 2.03067 2.72113
head 15.2153 0.100755 2.98305
rclavicle 1.86112e-014 3.57812e-015
rhumerus -34.3615 13.0186 -89.018
rradius 60.9304
rwrist 23.7844
rhand -25.7706 4.85127
rfingers 7.12502
rthumb 0.76735 -25.1271
lclavicle 1.86112e-014 3.57812e-015
lhumerus -32.0223 2.9262 88.875
lradius 36.3192
lwrist 5.72878
lhand -25.3496 20.3056
lfingers 7.12502
lthumb 1.17396 50.2821
rfemur -9.87497 9.02931 14.2588
rtibia 24.7276
rfoot -14.8556 -1.30961
rtoes 5.41383
lfemur 0.0439476 -1.17566 -22.0982
ltibia 11.1092
lfoot -10.1402 7.48243
ltoes -11.6289
62
root 0.00518567 18.0015 -0.905531 3.15061 -12.872 1.39782
lowerback -0.666122 -0.29605 -2.81593
upperback -0.194227 -0.380262 1.59843
thorax 0.203506 -0.191353 3.21798
lowerneck -20.3375 0.0521078 -8.36092
upperneck 34.5466 2.26646 2.58677
head 15.4557 0.171662 2.97394
rclavicle 2.39784e-014 3.97569e-015
rhumerus -33.9001 14.2424 -89.5587
rradius 62.2888
rwrist 23.828
rhand -25.8996 4.77779
rfingers 7.12502
rthumb 0.642693 -25.201
lclavicle 2.39784e-014 3.97569e-015
lhumerus -31.3909 1.97068 89.5053
lradius 36.697
lwrist 6.07736
lhand -25.7054 19.4224
lfingers 7.12502
lthumb 0.830282 49.4005
rfemur -9.86905 9.10022 14.1767
rtibia 24.7952
rfoot -14.9098 -1.31119
rtoes 5.70613
lfemur 0.0911188 -1.15318 -22.1739
ltibia 11.0807
lfoot -10.1082 7.45351
ltoes -11.6795
63
root 0.00686486 18.0011 -0.910839 3.06802 -12.9109 1.48564
lowerback -0.761777 -0.247485 -2.8079
upperback -0.120987 -0.312712 1.5142
thorax 0.32657 -0.160636 3.12663
lowerneck -20.3488 0.169946 -8.11437
upperneck 34.7235 2.45749 2.31519
head 15.5392 0.237583 2.85615
rclavicle 2.11209e-014 8.74653e-015
rhumerus -33.4014 15.4507 -90.1885
rradius 63.6525
rwrist 23.9699
rhand -26.215 5.08801
rfingers 7.12502
rthumb 0.338092 -24.8915
lclavicle 2.11209e-014 8.74653e-015
lhumerus -30.8016 1.00604 89.9972
lradius 37.0317
lwrist 6.34029
lhand -26.0421 18.9778
lfingers 7.12502
lthumb 0.505116 48.9569
rfemur -9.83173 9.04908 14.0853
rtibia 24.8147
rfoot -14.8626 -1.2722
rtoes 5.16434
lfemur 0.122952 -1.1989 -22.2788
ltibia 11.1263
lfoot -10.0973 7.51701
ltoes -11.5761
64
root 0.00875684 17.9977 -0.914418 2.99408 -12.9425 1.44921
lowerback -0.840666 -0.216442 -2.71807
upperback -0.107039 -0.270182 1.51112
thorax 0.381483 -0.140358 3.07297
lowerneck -20.1014 0.337418 -7.84605
upperneck 34.8422 2.71439 1.9674
head 15.5339 0.326574 2.70727
rclavicle 3.23025e-014 -1.11319e-014
rhumerus -33.0787 16.7282 -90.7812
rradius 65.0141
rwrist 24.2011
rhand -26.6858 5.39855
rfingers 7.12502
rthumb -0.11667 -24.5812
lclavicle 3.23025e-014 -1.11319e-014
lhumerus -30.3967 0.149106 90.5013
lradius 37.4092
lwrist 6.29603
lhand -25.949 19.2617
lfingers 7.12502
lthumb 0.595033 49.2406
rfemur -9.7317 9.04963 14.1409
rtibia 24.7402
rfoot -14.7993 -1.29922
rtoes 5.05635
lfemur 0.0670162 -1.17767 -22.2419
ltibia 11.3206
lfoot -10.1654 7.55493
ltoes -11.319
